<svg width="146" height="42" viewBox="0 0 146 42" fill="none" xmlns="http://www.w3.org/2000/svg">
<g clip-path="url(#clip0_18_19)">
<path d="M0.60133 20.9339C0.613316 9.72184 9.6141 0.810944 20.931 0.810944C32.161 0.810944 41.3326 9.84169 41.3805 20.9429C41.4255 32.1429 32.1311 41.2905 20.7662 41.2306C9.48826 41.1677 0.589345 32.2148 0.60133 20.9339ZM14.0486 30.5968C13.7579 33.9347 14.4231 35.0613 16.1819 34.1714C19.6007 32.4425 22.5819 32.9489 25.9198 34.3122C28.0981 35.2021 29.3595 33.8598 29.0689 31.6455C28.4576 27.0073 30.0546 25.4942 34.7857 26.2882C35.7176 26.444 36.6195 26.6478 37.5393 26.3182C38.4082 26.0066 38.9655 25.3953 38.8846 24.4695C38.8067 23.5886 38.2824 22.9444 37.3595 22.7406C36.2929 22.5039 35.3311 22.8185 34.3573 23.25C33.1318 23.7923 31.8824 24.3286 30.588 24.6492C29.6202 24.8889 28.4217 25.0807 27.7415 24.035C27.1243 23.0882 27.9393 22.2852 28.3647 21.5151C29.4044 19.6335 31.1033 18.4949 33.006 17.5691C34.0606 17.0567 34.9356 16.2986 34.8127 14.9533C34.7258 13.9975 34.0726 13.4462 33.2097 13.3024C31.7296 13.0507 30.9206 13.9795 30.3423 15.1691C29.4404 17.0267 28.4486 18.8305 26.9805 20.3226C26.0876 21.2305 25.0898 22.0784 23.7085 21.5181C22.4741 21.0178 22.3602 19.8133 22.2584 18.6657C22.0486 16.3256 22.6748 14.2192 23.8853 12.2087C24.6823 10.8874 24.8052 9.44619 23.6007 8.2327C22.8846 7.5106 21.9797 7.26191 21.0718 7.92109C19.6995 8.91884 19.5857 10.2911 20.0261 11.7863C20.0831 11.981 20.2119 12.1548 20.2808 12.3466C21.0958 14.5818 20.6464 16.832 20.2269 19.0432C19.8943 20.799 18.8756 21.4972 17.0748 20.5114C14.8036 19.2709 12.943 17.7279 12.5175 15.0222C12.3107 13.7159 11.9482 12.5293 10.3572 12.4874C9.34144 12.4604 8.58638 13.0896 8.20586 14.0095C7.59162 15.4897 8.62533 16.3406 9.62609 17.0807C11.4568 18.438 13.3624 19.7204 14.6448 21.641C15.9362 23.5766 15.28 24.7961 12.9549 24.838C11.0164 24.874 9.26953 24.2118 7.77439 23.0163C6.5639 22.0515 5.34742 21.3474 3.8343 22.2762C3.05527 22.7556 2.69272 23.5706 3.07025 24.4155C3.78936 26.0185 5.33543 25.9167 6.79462 26.0635C8.3347 26.2193 9.87178 26.4919 11.3759 26.8485C13.4583 27.3399 14.7767 28.4335 14.0426 30.5968H14.0486Z" fill="#FF0000"/>
<path d="M68.8803 19.7863H68.8593C71.4841 19.7863 73.6114 17.659 73.6114 15.0342C73.6114 12.4095 71.4841 10.2822 68.8593 10.2822H60.4338V31.7804H67.6309C70.9328 31.7804 73.6114 29.1017 73.6114 25.7998C73.6114 22.4979 72.1852 19.7863 68.8803 19.7863ZM65.2488 13.1376H67.1994C68.2841 13.1376 69.165 14.0185 69.165 15.1031V15.4567C69.165 16.5414 68.2841 17.4223 67.1994 17.4223H65.2488V13.1376ZM69.165 26.8665C69.165 27.9841 68.2601 28.889 67.1425 28.889H65.2488V22.5609H67.1425C68.2601 22.5609 69.165 23.4657 69.165 24.5833V26.8665Z" fill="#FF0000"/>
<path d="M100.371 10.2791H98.1688C95.0587 10.2791 92.5388 12.799 92.5388 15.9091V26.0275C92.5388 29.1376 95.0587 31.6575 98.1688 31.6575H100.371C103.481 31.6575 106.001 29.1376 106.001 26.0275V15.9091C106.001 12.799 103.481 10.2791 100.371 10.2791ZM101.147 26.3931C101.147 27.4298 100.308 28.2687 99.2714 28.2687C98.2347 28.2687 97.3958 27.4298 97.3958 26.3931V15.5436C97.3958 14.5069 98.2347 13.6679 99.2714 13.6679C100.308 13.6679 101.147 14.5069 101.147 15.5436V26.3961V26.3931Z" fill="#FF0000"/>
<path d="M108.746 10.2791H112.988C114.546 10.7765 115.847 13.7458 117.069 17.5121V10.2791H121.8V31.7804H116.743V24.4785C115.871 20.865 114.825 18.4919 113.641 17.0537V31.7804H108.53L108.749 10.2821L108.746 10.2791Z" fill="#FF0000"/>
<path d="M129.636 10.2791H124.848V31.7774H129.636V10.2791Z" fill="#FF0000"/>
<path d="M58.1086 31.7804C58.1026 22.411 57.8599 13.3863 53.5393 10.2822H49.2966C45.5303 14.42 45.0958 22.5459 45.5842 31.7804H49.746V27.6994H53.6202V31.7804H58.1086ZM49.788 23.9901C49.5842 19.9781 50.2764 16.5923 51.8674 13.8327C53.3715 16.3406 53.9977 19.7234 53.7041 23.9901H49.788Z" fill="#FF0000"/>
<path d="M145.399 31.7804C145.393 22.411 145.15 13.3863 140.83 10.2822H136.587C132.821 14.42 132.386 22.5459 132.874 31.7804H137.036V27.6994H140.91V31.7804H145.399ZM137.078 23.9901C136.874 19.9781 137.567 16.5923 139.158 13.8327C140.662 16.3406 141.288 19.7234 140.994 23.9901H137.078Z" fill="#FF0000"/>
<path d="M87.3463 20.5444C88.9253 19.5676 89.983 17.8237 89.983 15.8282C89.983 12.763 87.4991 10.2791 84.4339 10.2791H76.8743L76.7515 31.7774H81.6863V21.3743H82.6451C84.365 23.8912 85.3807 27.3908 85.7672 31.7774H91.0287C90.1268 26.7736 88.9103 22.9803 87.3463 20.5414V20.5444ZM83.3493 17.623H81.6024V13.2844H83.3493C84.5478 13.2844 85.5185 14.2552 85.5185 15.4537C85.5185 16.6522 84.5478 17.623 83.3493 17.623Z" fill="#FF0000"/>
</g>
<defs>
<clipPath id="clip0_18_19">
<rect width="144.798" height="40.4196" fill="white" transform="translate(0.601318 0.810944)"/>
</clipPath>
</defs>
</svg>
