<svg width="42" height="42" viewBox="0 0 42 42" fill="none" xmlns="http://www.w3.org/2000/svg">
<path d="M0.60133 20.9339C0.613316 9.72184 9.6141 0.810944 20.931 0.810944C32.161 0.810944 41.3326 9.84169 41.3805 20.9429C41.4255 32.1429 32.1311 41.2905 20.7662 41.2306C9.48826 41.1677 0.589345 32.2148 0.60133 20.9339ZM14.0486 30.5968C13.7579 33.9347 14.4231 35.0613 16.1819 34.1714C19.6007 32.4425 22.5819 32.9489 25.9198 34.3122C28.0981 35.2021 29.3595 33.8598 29.0689 31.6455C28.4576 27.0073 30.0546 25.4942 34.7857 26.2882C35.7176 26.444 36.6195 26.6478 37.5393 26.3182C38.4082 26.0066 38.9655 25.3953 38.8846 24.4695C38.8067 23.5886 38.2824 22.9444 37.3595 22.7406C36.2929 22.5039 35.3311 22.8185 34.3573 23.25C33.1318 23.7923 31.8824 24.3286 30.588 24.6492C29.6202 24.8889 28.4217 25.0807 27.7415 24.035C27.1243 23.0882 27.9393 22.2852 28.3647 21.5151C29.4044 19.6335 31.1033 18.4949 33.006 17.5691C34.0606 17.0567 34.9356 16.2986 34.8127 14.9533C34.7258 13.9975 34.0726 13.4462 33.2097 13.3024C31.7296 13.0507 30.9206 13.9795 30.3423 15.1691C29.4404 17.0267 28.4486 18.8305 26.9805 20.3226C26.0876 21.2305 25.0898 22.0784 23.7085 21.5181C22.4741 21.0178 22.3602 19.8133 22.2584 18.6657C22.0486 16.3256 22.6748 14.2192 23.8853 12.2087C24.6823 10.8874 24.8052 9.44619 23.6007 8.2327C22.8846 7.5106 21.9797 7.26191 21.0718 7.92109C19.6995 8.91884 19.5857 10.2911 20.0261 11.7863C20.0831 11.981 20.2119 12.1548 20.2808 12.3466C21.0958 14.5818 20.6464 16.832 20.2269 19.0432C19.8943 20.799 18.8756 21.4972 17.0748 20.5114C14.8036 19.2709 12.943 17.7279 12.5175 15.0222C12.3107 13.7159 11.9482 12.5293 10.3572 12.4874C9.34144 12.4604 8.58638 13.0896 8.20586 14.0095C7.59162 15.4897 8.62533 16.3406 9.62609 17.0807C11.4568 18.438 13.3624 19.7204 14.6448 21.641C15.9362 23.5766 15.28 24.7961 12.9549 24.838C11.0164 24.874 9.26953 24.2118 7.77439 23.0163C6.5639 22.0515 5.34742 21.3474 3.8343 22.2762C3.05527 22.7556 2.69272 23.5706 3.07025 24.4155C3.78936 26.0185 5.33543 25.9167 6.79462 26.0635C8.3347 26.2193 9.87178 26.4919 11.3759 26.8485C13.4583 27.3399 14.7767 28.4335 14.0426 30.5968H14.0486Z" fill="#008000"/>
</svg>

